<?xml version="1.0" encoding="UTF-8" standalone="no"?>
<!DOCTYPE svg PUBLIC "-//W3C//DTD SVG 1.1//EN" "http://www.w3.org/Graphics/SVG/1.1/DTD/svg11.dtd">
<svg width="100%" height="100%" viewBox="0 0 32 32" version="1.1" xmlns="http://www.w3.org/2000/svg" xmlns:xlink="http://www.w3.org/1999/xlink" xml:space="preserve" xmlns:serif="http://www.serif.com/" style="fill-rule:evenodd;clip-rule:evenodd;stroke-linejoin:round;stroke-miterlimit:2;">
    <g transform="matrix(1,0,0,1,-212,0)">
        <g id="Icon32" transform="matrix(0.25,0,0,0.25,212,0)">
            <rect x="0" y="0" width="128" height="128" style="fill:none;"/>
            <g transform="matrix(4.27078,0,0,4.27078,-909.738,-4.33251)">
                <path d="M233.809,23.516L237.421,27.465C235.208,29.287 232.457,30.48 229.445,30.772L229.207,25.425C230.926,25.207 232.503,24.528 233.809,23.516ZM213.228,17.445L218.575,17.207C218.794,18.927 219.473,20.503 220.484,21.81L216.536,25.422C214.713,23.208 213.52,20.457 213.228,17.445ZM239.465,6.579C241.287,8.792 242.48,11.543 242.772,14.556L237.425,14.794C237.206,13.074 236.528,11.497 235.516,10.191L239.465,6.579ZM226.555,1.228L226.793,6.579C225.596,6.733 224.432,7.11 223.372,7.702C222.959,7.934 222.565,8.196 222.192,8.486L218.578,4.536C220.792,2.713 223.543,1.52 226.555,1.228Z" style="fill:rgb(192,192,192);"/>
            </g>
            <g transform="matrix(4.27078,0,0,4.27078,-909.738,-4.33251)">
                <path d="M222.191,23.516C223.497,24.528 225.074,25.207 226.793,25.425L226.555,30.772C223.543,30.481 220.793,29.287 218.579,27.465L222.191,23.516ZM242.772,17.445C242.48,20.457 241.287,23.208 239.464,25.422L235.516,21.81C236.528,20.503 237.206,18.927 237.425,17.207L242.772,17.445ZM216.535,6.579L220.485,10.192C220.219,10.535 219.976,10.895 219.759,11.273C219.134,12.358 218.737,13.558 218.578,14.794L213.228,14.556C213.519,11.543 214.713,8.793 216.535,6.579ZM229.445,1.228C232.457,1.52 235.208,2.713 237.422,4.536L233.808,8.486C233.465,8.219 233.105,7.976 232.728,7.759C231.642,7.135 230.442,6.738 229.207,6.579L229.445,1.228Z" style="fill:rgb(114,114,114);"/>
            </g>
            <g id="Handle" transform="matrix(0.377187,0.377187,-0.398309,0.398309,-131.827,-193.615)">
                <g transform="matrix(1.22201,-1.1572,1.37653,1.30354,-135.032,245.705)">
                    <g transform="matrix(-9.0487e-16,-4.37291,4.92588,-8.0329e-16,-153.007,1684.69)">
                        <circle cx="335" cy="103" r="2" style="fill:rgb(192,192,192);"/>
                    </g>
                    <g transform="matrix(4.92588,-1.83473e-15,3.46245e-16,4.37291,-1296.36,-265.538)">
                        <circle cx="335" cy="103" r="2" style="fill:rgb(192,192,192);"/>
                    </g>
                    <g transform="matrix(1.50812e-15,4.37291,-4.92588,1.33882e-15,900.49,-1280.54)">
                        <circle cx="335" cy="103" r="2" style="fill:rgb(192,192,192);"/>
                    </g>
                    <g transform="matrix(-4.92588,2.37026e-15,-9.49491e-16,-4.37291,2043.84,669.695)">
                        <circle cx="335" cy="103" r="2" style="fill:rgb(192,192,192);"/>
                    </g>
                </g>
                <g transform="matrix(2.71071,-2.56696,2.71071,2.56696,-586.293,673.036)">
                    <path d="M332.575,98.454L327.391,93.27L325.27,95.391L330.454,100.575C330.067,101.298 329.848,102.124 329.848,103C329.848,103.876 330.067,104.702 330.454,105.425L325.27,110.609L327.391,112.73L332.575,107.546C333.298,107.933 334.124,108.152 335,108.152C335.876,108.152 336.702,107.933 337.425,107.546L342.609,112.73L344.73,110.609L339.546,105.425C339.933,104.702 340.152,103.876 340.152,103C340.152,102.124 339.933,101.298 339.546,100.575L344.73,95.391L342.609,93.27L337.425,98.454C336.702,98.067 335.876,97.848 335,97.848C334.124,97.848 333.298,98.067 332.575,98.454ZM335,100.848C336.188,100.848 337.152,101.812 337.152,103C337.152,104.188 336.188,105.152 335,105.152C333.812,105.152 332.848,104.188 332.848,103C332.848,101.812 333.812,100.848 335,100.848Z" style="fill:rgb(192,192,192);"/>
                </g>
            </g>
        </g>
    </g>
</svg>
